<svg viewBox="0 0 24 24" width="24" height="24" xmlns="http://www.w3.org/2000/svg">
  <path fill="#0078D4" d="M24 7.875v8.25l-9.75 3V4.875l9.75 3zM12.75 8.625v6.75L2.203 17.297A1.5 1.5 0 011.5 15.926V8.074a1.5 1.5 0 01.703-1.371L12.75 8.625z"/>
  <path fill="#28A8EA" d="M24 7.875l-11.25-3.75v15l11.25-3v-8.25z"/>
  <path fill="#0078D4" d="M12.75 4.125v15l-10.547-1.76A1.5 1.5 0 011.5 15.926V8.074a1.5 1.5 0 01.703-1.371l10.547-2.578z"/>
  <path fill="#0364B8" d="M12.75 8.625L2.203 6.703A1.5 1.5 0 001.5 8.074v7.852a1.5 1.5 0 00.703 1.371L12.75 15.375v-6.75z"/>
</svg>